<svg viewBox="0 0 512 512" xmlns="http://www.w3.org/2000/svg"><circle cx="256" cy="256" fill="#f7bb38" r="256"/><path d="m154.77 110.66h27.65v74.5h-27.65z" fill="#9e4830"/><path d="m333.63 110.66h27.65v74.5h-27.65z" fill="#9e4830"/><path d="m392.82 471.94c-82.36 56.28-194.87 55.46-276.35-2 9-56.13 22.38-112.21 77.88-139.27 5.77-2.82 13.33-2.26 18.71-5.56 28.74-17.62 4-31.37 20.92-49.77 9.73-10.6 46.62-4.72 51.91 3.27 4.83 7.31-5.58 23.4-1.45 32 6.31 13.12 17.38 11.8 28.5 18.58 56.23 34.26 71.39 79.06 79.88 142.77-3.06 2.04-7.53-56.52 0-.02z" fill="#fcc8bc"/><path d="m347.45 143.87v60.93c0 45.45-36.17 60-62.54 83.12a40.58 40.58 0 0 1 -54.06 0c-26.37-23.12-62.54-37.67-62.54-83.12v-60.93c0-44.69 33.29-81.14 75-82.93 1.08-.06 25.93-.08 25.93-.08 43.18 0 78.21 37.14 78.21 83.01z" fill="#fcc8bc"/><path d="m204.06 204.8v-60.93c0-43.5 31.53-79.2 71.69-82.72-2.16-.2-29.21-.29-29.21-.29-43.21 0-78.23 37.17-78.23 83v30.14a17.93 17.93 0 0 0 0 35.85h.18c2.59 41.49 37 55.82 62.35 78a40.48 40.48 0 0 0 44.91 6.15 41.79 41.79 0 0 1 -9.16-6.13c-26.37-23.06-62.53-37.63-62.53-83.07z" fill="#fab3a7"/><circle cx="347.44" cy="191.96" fill="#fcc8bc" r="17.92"/><path d="m234.5 170.84a3.47 3.47 0 0 1 -1.89-.56c-17.46-11.27-38.3 0-38.51.12a3.5 3.5 0 0 1 -3.4-6.12c1-.56 24.67-13.45 45.7.12a3.5 3.5 0 0 1 -1.9 6.44z" fill="#e88032"/><ellipse cx="213.15" cy="189.79" fill="#27273d" rx="7.49" ry="10.78"/><path d="m321.56 170.84a3.47 3.47 0 0 1 -1.9-.56c-17.46-11.27-38.3 0-38.51.12a3.5 3.5 0 0 1 -3.4-6.12c1-.56 24.67-13.45 45.71.12a3.5 3.5 0 0 1 -1.9 6.44z" fill="#e88032"/><ellipse cx="300.21" cy="189.79" fill="#27273d" rx="7.49" ry="10.78"/><rect fill="#fab3a7" height="9.87" rx="4.53" width="26.04" x="244.53" y="209.88"/><path d="m226.77 185.35a3.54 3.54 0 0 1 -1.74-.46 24.11 24.11 0 0 0 -23.62-.08 3.5 3.5 0 0 1 -3.74-5.92c.6-.38 14.9-9.19 30.84-.08a3.5 3.5 0 0 1 -1.74 6.54z" fill="#27273d"/><path d="m313.82 185.35a3.48 3.48 0 0 1 -1.73-.46 24.12 24.12 0 0 0 -23.63-.08 3.5 3.5 0 0 1 -3.74-5.92c.6-.38 14.89-9.19 30.84-.08a3.5 3.5 0 0 1 -1.74 6.54z" fill="#27273d"/><path d="m168.82 184.83a7.13 7.13 0 0 0 0 14.26z" fill="#f58d89"/><path d="m347.45 199.09a7.13 7.13 0 0 0 0-14.26z" fill="#fab3a7"/><path d="m236.76 238a1.77 1.77 0 0 0 -1.76 1.9c1 11.8 10.69 22.73 22.55 22.73 11.86 0 21.59-10.93 22.55-22.73a1.77 1.77 0 0 0 -1.76-1.9z" fill="#fff"/><path d="m392.82 471.94c-82.46 56.34-194.82 55.49-276.35-2 10.22-63.8 29.34-130.94 96.6-146.94 0 0 40.8 30.23 45.47 28.61s46.92-27.23 54-24.18c60.05 26 72.86 88.58 80.31 144.48-3.09 2.09-7.56-56.47-.03.03z" fill="#c5e8fc"/><path d="m258.55 358.87-29.74 40.33a5.41 5.41 0 0 1 -9.45-1.35s-25-66.81-25-67.19c1.35-.53 15.59-9.18 20.3-10.59z" fill="#accedd"/><path d="m280.76 512.76a247.92 247.92 0 0 1 -51.44-.22l20.83-127.33-7.51-4.77-4-2.54 16.95-22.34 3-3.92 19.6 26.26-13 7.82z" fill="#27273d"/><rect fill="#7cc8fb" height="15.84" rx="3.6" width="55.47" x="285.53" y="407.68"/><path d="m220.7 316.71-15.06 7.17a4.18 4.18 0 0 0 -2.12 5.26l20.78 54.86a4.57 4.57 0 0 0 7.94 1.11l25-33.47s-24.1-26.48-31.77-34.11a4.18 4.18 0 0 0 -4.77-.82z" fill="#fff"/><path d="m289.32 317.52c-7.67 7.63-31.77 34.11-31.77 34.11l25 33.47a4.57 4.57 0 0 0 7.94-1.11l20.77-54.85a4.19 4.19 0 0 0 -2.11-5.26l-15.07-7.17a4.16 4.16 0 0 0 -4.76.81z" fill="#fff"/><path d="m250.15 385.21-20.83 127.33q-6.6-.72-13.07-1.8l26.39-130.3z" fill="#accedd"/><circle cx="178.58" cy="126.59" fill="#9e4830" r="23.82"/><circle cx="333.63" cy="126.59" fill="#9e4830" r="23.82"/><path d="m386.66 80.56c0 8.52-2.93 16.69-8.28 24.22-8.24 11.6-22.25 21.71-40.16 29.3-21.87 9.29-49.56 14.84-79.67 14.84s-57.8-5.55-79.68-14.84c-17.9-7.59-31.92-17.7-40.15-29.3-5.35-7.53-8.28-15.7-8.28-24.22 0-37.76 57.36-68.36 128.11-68.36s128.11 30.6 128.11 68.36z" fill="#3e436d"/><path d="m378.38 104.78h-239.66c7.22 10.18 18.9 19.21 33.74 26.4a34.48 34.48 0 0 0 34.4 32.28h102a34.48 34.48 0 0 0 34.35-31.61c15.51-7.29 27.71-16.57 35.17-27.07z" fill="#27273d"/><path d="m216.91 63.7v25.94h26.87v-25.94h26.87v25.94h26.87v-25.94h26.87v-26.87h-26.87v25.94h-26.87v-25.94h-26.87v25.94h-26.87v-25.94h-26.87v26.87z" fill="#f6c752"/></svg>